<svg width="80" height="80" viewBox="0 0 80 80" fill="none" xmlns="http://www.w3.org/2000/svg">
<path d="M61.7709 0.416687H18.2292C8.38966 0.416687 0.416748 8.3896 0.416748 18.2292V22.4084V46.5979V61.7709C0.416748 71.6063 8.38966 79.5834 18.2292 79.5834H61.7709C71.6105 79.5834 79.5834 71.6063 79.5834 61.7709V46.5979V22.4084V18.2292C79.5834 8.3896 71.6105 0.416687 61.7709 0.416687Z" fill="#DE3300"/>
<path d="M50.9146 20.2083C55.2188 20.2083 58.7104 38.3958 58.7104 60.8333H64.9479C64.9479 36.6708 58.6646 17.0833 50.9167 17.0833C46.5084 17.0833 42.575 22.9708 40.0021 32.175C37.4292 22.9708 33.4938 17.0833 29.0854 17.0833C21.3375 17.0833 15.0542 36.6708 15.0542 60.8333H21.2917C21.2917 38.3979 24.7813 20.2083 29.0854 20.2083C33.3917 20.2083 36.8813 36.9979 36.8813 57.7083H43.1167C43.1188 36.9979 46.6084 20.2083 50.9146 20.2083Z" fill="#FFCB00"/>
</svg>
